<svg xmlns="http://www.w3.org/2000/svg" viewBox="0 0 512 512" width="512" height="512">
  <circle cx="256" cy="256" r="219" fill="#4BCED2"/>
  <circle cx="256" cy="256" r="205" fill="#BAA6D9"/>
  <circle cx="256" cy="256" r="187" fill="#14111B"/>
  <g fill="none" stroke="#4BCED2" stroke-width="14" stroke-linejoin="round">
    <path d="M 214 118 H 302 A 37 37 0 0 1 339 155 V 162 A 30 30 0 0 1 282 175 H 234 A 30 30 0 0 1 177 162 V 155 A 37 37 0 0 1 214 118 Z"/>
  </g>
  <g fill="#4BCED2">
    <rect x="217" y="133" width="12" height="34" rx="5"/>
    <rect x="206" y="144" width="34" height="12" rx="5"/>
    <circle cx="281" cy="161" r="8"/>
    <circle cx="300" cy="141" r="8"/>
  </g>
  <g fill="none" stroke-width="28" stroke-linecap="round" stroke-linejoin="round">
    <path d="M 316 234 H 212 V 283" stroke="#BAA6D9"/>
    <path d="M 316 297 V 361 H 206" stroke="#BAA6D9"/>
    <path d="M 212 296 H 286" stroke="#4BCED2"/>
  </g>
</svg>
