<svg xmlns="http://www.w3.org/2000/svg" viewBox="0 0 512 512" width="512" height="512">
  <circle cx="256" cy="256" r="219" fill="#4BCED2"/>
  <circle cx="256" cy="256" r="205" fill="#BAA6D9"/>
  <circle cx="256" cy="256" r="187" fill="#14111B"/>
  <g>
    <path d="M 214 110 a 12 12 0 0 1 12 -10 h 12" fill="none" stroke="#4BCED2" stroke-width="12" stroke-linecap="round"/>
    <path d="M 302 110 a 12 12 0 0 0 -12 -10 h -12" fill="none" stroke="#4BCED2" stroke-width="12" stroke-linecap="round"/>
    <rect x="186" y="120" width="144" height="72" rx="32" fill="none" stroke="#4BCED2" stroke-width="14"/>
    <rect x="221" y="139" width="12" height="34" rx="5" fill="#4BCED2"/>
    <rect x="210" y="150" width="34" height="12" rx="5" fill="#4BCED2"/>
    <circle cx="283" cy="167" r="8" fill="#4BCED2"/>
    <circle cx="302" cy="147" r="8" fill="#4BCED2"/>
  </g>
  <g fill="none" stroke-width="28" stroke-linecap="round" stroke-linejoin="round">
    <path d="M 316 234 H 212 V 283" stroke="#BAA6D9"/>
    <path d="M 316 297 V 361 H 206" stroke="#BAA6D9"/>
    <path d="M 212 296 H 286" stroke="#4BCED2"/>
  </g>
</svg>
