<svg xmlns="http://www.w3.org/2000/svg" viewBox="0 0 512 512" width="512" height="512">
  <circle cx="256" cy="256" r="219" fill="#4BCED2"/>
  <circle cx="256" cy="256" r="205" fill="#BAA6D9"/>
  <circle cx="256" cy="256" r="187" fill="#14111B"/>
  <g>
    <rect x="218" y="102" width="16" height="16" fill="#4BCED2"/>
    <rect x="234" y="102" width="16" height="16" fill="#4BCED2"/>
    <rect x="266" y="102" width="16" height="16" fill="#4BCED2"/>
    <rect x="282" y="102" width="16" height="16" fill="#4BCED2"/>
    <rect x="202" y="118" width="16" height="16" fill="#4BCED2"/>
    <rect x="218" y="118" width="16" height="16" fill="#4BCED2"/>
    <rect x="234" y="118" width="16" height="16" fill="#4BCED2"/>
    <rect x="250" y="118" width="16" height="16" fill="#4BCED2"/>
    <rect x="266" y="118" width="16" height="16" fill="#4BCED2"/>
    <rect x="282" y="118" width="16" height="16" fill="#4BCED2"/>
    <rect x="298" y="118" width="16" height="16" fill="#4BCED2"/>
    <rect x="202" y="134" width="16" height="16" fill="#4BCED2"/>
    <rect x="218" y="134" width="16" height="16" fill="#4BCED2"/>
    <rect x="234" y="134" width="16" height="16" fill="#4BCED2"/>
    <rect x="250" y="134" width="16" height="16" fill="#4BCED2"/>
    <rect x="266" y="134" width="16" height="16" fill="#4BCED2"/>
    <rect x="282" y="134" width="16" height="16" fill="#4BCED2"/>
    <rect x="298" y="134" width="16" height="16" fill="#4BCED2"/>
    <rect x="218" y="150" width="16" height="16" fill="#4BCED2"/>
    <rect x="234" y="150" width="16" height="16" fill="#4BCED2"/>
    <rect x="250" y="150" width="16" height="16" fill="#4BCED2"/>
    <rect x="266" y="150" width="16" height="16" fill="#4BCED2"/>
    <rect x="282" y="150" width="16" height="16" fill="#4BCED2"/>
    <rect x="234" y="166" width="16" height="16" fill="#4BCED2"/>
    <rect x="250" y="166" width="16" height="16" fill="#4BCED2"/>
    <rect x="266" y="166" width="16" height="16" fill="#4BCED2"/>
    <rect x="250" y="182" width="16" height="16" fill="#4BCED2"/>
  </g>
  <g fill="none" stroke-width="28" stroke-linecap="round" stroke-linejoin="round">
    <path d="M 316 234 H 212 V 283" stroke="#BAA6D9"/>
    <path d="M 316 297 V 361 H 206" stroke="#BAA6D9"/>
    <path d="M 212 296 H 286" stroke="#4BCED2"/>
  </g>
</svg>
