<?xml version="1.0" encoding="utf-8"?>
<!-- Generator: Adobe Illustrator 23.0.2, SVG Export Plug-In . SVG Version: 6.00 Build 0)  -->
<svg version="1.1" xmlns="http://www.w3.org/2000/svg" xmlns:xlink="http://www.w3.org/1999/xlink" x="0px" y="0px"
	 viewBox="0 0 89 87.6" style="enable-background:new 0 0 89 87.6;" xml:space="preserve">
<style type="text/css">
	.st0{display:none;}
	.st1{display:inline;fill:#BA0000;stroke:#000000;stroke-miterlimit:10;}
	.st2{fill:#FFFFFF;}
</style>
<g id="Layer_2" class="st0">
	<rect x="-16.9" y="-17.9" class="st1" width="122.4" height="140.8"/>
</g>
<g id="Layer_1">
	<path class="st2" d="M72.2,15.7L44.4,4.1L16.6,15.7L5,43.5l11.5,27.8l27.9,11.6l27.8-11.5l11.6-27.9L72.2,15.7z M81.3,42l-12.5-3.4
		c0-0.2,0-0.4,0-0.6c0-2-1.1-3.8-2.7-4.8l5.6-14.7L81.3,42z M40.2,53.8c-0.3-2.3-1.6-4.2-3.5-5.3l5-12.1c0.9,0.3,1.8,0.4,2.7,0.4
		s1.9-0.1,2.7-0.4l6.2,15c-0.8,0.6-1.4,1.4-1.6,2.4C51.7,53.8,40.2,53.8,40.2,53.8z M55.6,50.7c-0.2,0-0.4,0-0.7,0.1l-6.2-15
		c1.3-0.7,2.3-1.7,3.1-2.9l6.2,3.4c-0.2,0.6-0.3,1.2-0.3,1.8c0,1.9,1,3.6,2.4,4.6l-3.7,8.1C56.1,50.7,55.9,50.7,55.6,50.7z
		 M33.1,47.5c-0.8,0-1.6,0.1-2.3,0.4l-5.6-11.6c0.9-0.7,1.5-1.8,1.5-3.1c0,0,0,0,0-0.1l9.3-2.3c0.7,2.1,2.2,3.9,4.2,4.9l-5,12
		C34.5,47.6,33.8,47.5,33.1,47.5z M63.2,32.6c-1.8,0-3.3,0.8-4.3,2.1l-6.2-3.4c0.5-1.1,0.7-2.3,0.7-3.5c0-1-0.2-1.9-0.5-2.8l17-7.1
		l-5.5,14.8C64,32.6,63.6,32.6,63.2,32.6z M35.5,29.1l-9.3,2.3c-0.7-1.3-2-2.2-3.6-2.2c-0.1,0-0.2,0-0.3,0l-3.6-11.3L35.8,25
		c-0.3,0.9-0.5,1.8-0.5,2.8C35.4,28.3,35.4,28.7,35.5,29.1z M19.8,36c0.7,0.7,1.7,1.2,2.8,1.2c0.3,0,0.6,0,0.9-0.1l5.6,11.6
		c-1,0.6-1.8,1.5-2.4,2.5L8,43.5L19.8,36z M58,51.5l3.8-8.1c0.5,0.1,1,0.2,1.5,0.2c2.2,0,4.2-1.3,5-3.2l12.1,3.2l-21.5,8.9
		C58.7,52.1,58.3,51.8,58,51.5z M71.1,17.5L71.1,17.5L71.1,17.5L71.1,17.5z M52.2,23.4c-1.4-2.5-4-4.2-6.9-4.5V6.4l24,9.9L52.2,23.4
		z M43.5,6.4v12.5c-3,0.3-5.5,2-6.9,4.5l-17.1-7.1L43.5,6.4z M17.2,18.7l3.5,11c-1.2,0.7-2,2-2,3.4c0,0.5,0.1,0.9,0.3,1.4L7.8,41.6
		L17.2,18.7z M7.1,43L7.1,43L7.1,43L7.1,43z M7.6,45.1l18.5,7.7c-0.2,0.6-0.3,1.2-0.3,1.9c0,1.7,0.6,3.2,1.6,4.5l-9.9,10L7.6,45.1z
		 M17.9,70L17.9,70L17.9,70L17.9,70z M18.8,70.4l9.9-10c1.2,0.9,2.7,1.5,4.4,1.5c0.7,0,1.4-0.1,2-0.3l7.7,18.7L18.8,70.4z
		 M36.7,60.9c1.9-1.1,3.3-3.1,3.5-5.4h11.5c0.2,1,0.8,1.9,1.7,2.4l-9,21.7L36.7,60.9z M55,58.6c0.2,0,0.4,0.1,0.6,0.1
		c0.8,0,1.5-0.2,2.1-0.6L70,70.4l-24,9.9L55,58.6z M71.3,69.1L58.9,56.8c0.4-0.6,0.6-1.3,0.6-2.1c0-0.2,0-0.4-0.1-0.6l21.7-9
		L71.3,69.1z M81.7,43L81.7,43L81.7,43L81.7,43z"/>
</g>
</svg>
