<?xml version="1.0" encoding="utf-8"?>
<!-- Generator: Adobe Illustrator 23.0.6, SVG Export Plug-In . SVG Version: 6.00 Build 0)  -->
<svg version="1.1" id="Layer_1" xmlns="http://www.w3.org/2000/svg" xmlns:xlink="http://www.w3.org/1999/xlink" x="0px" y="0px"
	 viewBox="0 0 1920 1080" style="enable-background:new 0 0 1920 1080;" xml:space="preserve">
<style type="text/css">
	.st0{opacity:0.52;}
	.st1{opacity:0.45;enable-background:new    ;}
	.st2{opacity:0.45;fill:#574F7D;enable-background:new    ;}
	.st3{opacity:0.45;fill:#FFFFFF;enable-background:new    ;}
</style>
<g id="Component_11_1" transform="translate(0 228)" class="st0">
	<g id="Component_6_24">
		<ellipse id="Ellipse_1" class="st1" cx="42.9" cy="-138.7" rx="13" ry="12.5"/>
		<ellipse id="Ellipse_2" class="st2" cx="21.9" cy="-200.2" rx="11" ry="10"/>
		<ellipse id="Ellipse_4" class="st3" cx="46.9" cy="55.3" rx="5" ry="4.5"/>
		<path id="Path_306" class="st2" d="M53.2,459.9c3.7,0,6.8,2.7,6.8,6.1s-3,6.1-6.8,6.1c-3.7,0-6.8-2.7-6.8-6.1
			S49.5,459.9,53.2,459.9z"/>
		<path id="Path_305" class="st2" d="M20.4,766.8c3.8-0.1,6.9,2.9,7,6.7c-0.1,3.8-3.2,6.8-7,6.7c-3.8,0.1-6.9-2.9-7-6.7
			C13.5,769.7,16.6,766.7,20.4,766.8z"/>
		<path id="Polygon_1" class="st2" d="M32.9,103.1l-2.8,20.7l-16.5-12.9L32.9,103.1z"/>
		<path id="Polygon_2" class="st2" d="M80.2,340.3l35.9,10.7l-29,26.1L80.2,340.3z"/>
		<path id="Polygon_3" class="st1" d="M82.9,717.7l-3.2,31.7l-26.8-20.9L82.9,717.7z"/>
		<path id="Polygon_57" class="st1" d="M36,568.9l12.7,6.5l-9.5,7.4L36,568.9z"/>
		<path id="Path_308" class="st2" d="M57,789.8c5.9,0,10.6,4.5,10.6,10s-4.8,10-10.6,10s-10.6-4.5-10.6-10
			C46.4,794.2,51.1,789.8,57,789.8z"/>
		<circle id="Ellipse_24" class="st3" cx="105.4" cy="166.3" r="7.5"/>
	</g>
</g>
<g id="Component_11_2" transform="translate(1681)" class="st0">
	<g id="Component_6_24-2">
		<ellipse id="Ellipse_1-2" class="st1" cx="141.9" cy="986.2" rx="13" ry="12.7"/>
		<ellipse id="Ellipse_2-2" class="st2" cx="120.9" cy="1048.8" rx="11" ry="10.2"/>
		<ellipse id="Ellipse_4-2" class="st3" cx="145.9" cy="788.8" rx="5" ry="4.6"/>
		<path id="Path_306-2" class="st2" d="M152.2,377c3.7,0,6.8-2.8,6.8-6.2c0-3.4-3-6.2-6.8-6.2c-3.7,0-6.8,2.8-6.8,6.2
			S148.5,377,152.2,377z"/>
		<path id="Path_305-2" class="st2" d="M119.4,64.7c3.8,0.1,6.9-3,7-6.8c-0.1-3.9-3.2-6.9-7-6.8c-3.8-0.1-6.9,3-7,6.8
			C112.5,61.7,115.6,64.8,119.4,64.7z"/>
		<path id="Polygon_1-2" class="st2" d="M131.9,740.1l-2.8-21l-16.5,13.2L131.9,740.1z"/>
		<path id="Polygon_2-2" class="st2" d="M201.2,498.7l35.9-10.9l-29-26.6L201.2,498.7z"/>
		<path id="Polygon_3-2" class="st1" d="M181.9,114.6l-3.2-32.3l-26.8,21.3L181.9,114.6z"/>
		<path id="Polygon_57-2" class="st1" d="M135,266.1l12.7-6.7l-9.5-7.5L135,266.1z"/>
		<path id="Path_308-2" class="st2" d="M156,41.3c5.9,0,10.6-4.5,10.6-10.2S161.9,21,156,21s-10.6,4.5-10.6,10.2
			S150.1,41.3,156,41.3z"/>
		<ellipse id="Ellipse_24-2" class="st3" cx="204.4" cy="675.8" rx="7.5" ry="7.6"/>
	</g>
</g>
</svg>
