<svg xmlns="http://www.w3.org/2000/svg" width="1733" height="31" viewBox="0 0 1733 31">
  <g id="Component_9_2" data-name="Component 9 – 2" opacity="0.43">
    <path id="Polygon_6" data-name="Polygon 6" d="M26.5,0,53,31H0Z" transform="translate(53 31) rotate(180)" fill="#9192bb"/>
    <path id="Polygon_7" data-name="Polygon 7" d="M15.5,0,31,16H0Z" transform="translate(84 16) rotate(180)" fill="#9192bb"/>
    <path id="Polygon_8" data-name="Polygon 8" d="M26.5,0,53,31H0Z" transform="translate(137 31) rotate(180)" fill="#9192bb"/>
    <path id="Polygon_9" data-name="Polygon 9" d="M15.5,0,31,16H0Z" transform="translate(168 16) rotate(180)" fill="#9192bb"/>
    <path id="Polygon_10" data-name="Polygon 10" d="M26.5,0,53,31H0Z" transform="translate(221 31) rotate(180)" fill="#9192bb"/>
    <path id="Polygon_11" data-name="Polygon 11" d="M15.5,0,31,16H0Z" transform="translate(252 16) rotate(180)" fill="#9192bb"/>
    <path id="Polygon_12" data-name="Polygon 12" d="M26.5,0,53,31H0Z" transform="translate(305 31) rotate(180)" fill="#9192bb"/>
    <path id="Polygon_13" data-name="Polygon 13" d="M15.5,0,31,16H0Z" transform="translate(336 16) rotate(180)" fill="#9192bb"/>
    <path id="Polygon_14" data-name="Polygon 14" d="M26.5,0,53,31H0Z" transform="translate(389 31) rotate(180)" fill="#9192bb"/>
    <path id="Polygon_15" data-name="Polygon 15" d="M15.5,0,31,16H0Z" transform="translate(420 16) rotate(180)" fill="#9192bb"/>
    <path id="Polygon_16" data-name="Polygon 16" d="M26.5,0,53,31H0Z" transform="translate(473 31) rotate(180)" fill="#9192bb"/>
    <path id="Polygon_17" data-name="Polygon 17" d="M15.5,0,31,16H0Z" transform="translate(504 16) rotate(180)" fill="#9192bb"/>
    <path id="Polygon_18" data-name="Polygon 18" d="M26.5,0,53,31H0Z" transform="translate(557 31) rotate(180)" fill="#9192bb"/>
    <path id="Polygon_19" data-name="Polygon 19" d="M15.5,0,31,16H0Z" transform="translate(588 16) rotate(180)" fill="#9192bb"/>
    <path id="Polygon_20" data-name="Polygon 20" d="M26.5,0,53,31H0Z" transform="translate(641 31) rotate(180)" fill="#9192bb"/>
    <path id="Polygon_21" data-name="Polygon 21" d="M15.5,0,31,16H0Z" transform="translate(672 16) rotate(180)" fill="#9192bb"/>
    <path id="Polygon_30" data-name="Polygon 30" d="M26.5,0,53,31H0Z" transform="translate(725 31) rotate(180)" fill="#9192bb"/>
    <path id="Polygon_31" data-name="Polygon 31" d="M15.5,0,31,16H0Z" transform="translate(756 16) rotate(180)" fill="#9192bb"/>
    <path id="Polygon_32" data-name="Polygon 32" d="M26.5,0,53,31H0Z" transform="translate(809 31) rotate(180)" fill="#9192bb"/>
    <path id="Polygon_33" data-name="Polygon 33" d="M15.5,0,31,16H0Z" transform="translate(840 16) rotate(180)" fill="#9192bb"/>
    <path id="Polygon_34" data-name="Polygon 34" d="M26.5,0,53,31H0Z" transform="translate(893 31) rotate(180)" fill="#9192bb"/>
    <path id="Polygon_35" data-name="Polygon 35" d="M15.5,0,31,16H0Z" transform="translate(924 16) rotate(180)" fill="#9192bb"/>
    <path id="Polygon_36" data-name="Polygon 36" d="M26.5,0,53,31H0Z" transform="translate(977 31) rotate(180)" fill="#9192bb"/>
    <path id="Polygon_37" data-name="Polygon 37" d="M15.5,0,31,16H0Z" transform="translate(1008 16) rotate(180)" fill="#9192bb"/>
    <path id="Polygon_38" data-name="Polygon 38" d="M26.5,0,53,31H0Z" transform="translate(1061 31) rotate(180)" fill="#9192bb"/>
    <path id="Polygon_39" data-name="Polygon 39" d="M15.5,0,31,16H0Z" transform="translate(1092 16) rotate(180)" fill="#9192bb"/>
    <path id="Polygon_40" data-name="Polygon 40" d="M26.5,0,53,31H0Z" transform="translate(1145 31) rotate(180)" fill="#9192bb"/>
    <path id="Polygon_41" data-name="Polygon 41" d="M15.5,0,31,16H0Z" transform="translate(1176 16) rotate(180)" fill="#9192bb"/>
    <path id="Polygon_42" data-name="Polygon 42" d="M26.5,0,53,31H0Z" transform="translate(1229 31) rotate(180)" fill="#9192bb"/>
    <path id="Polygon_43" data-name="Polygon 43" d="M15.5,0,31,16H0Z" transform="translate(1260 16) rotate(180)" fill="#9192bb"/>
    <path id="Polygon_44" data-name="Polygon 44" d="M26.5,0,53,31H0Z" transform="translate(1313 31) rotate(180)" fill="#9192bb"/>
    <path id="Polygon_45" data-name="Polygon 45" d="M15.5,0,31,16H0Z" transform="translate(1344 16) rotate(180)" fill="#9192bb"/>
    <path id="Polygon_46" data-name="Polygon 46" d="M26.5,0,53,31H0Z" transform="translate(1397 31) rotate(180)" fill="#9192bb"/>
    <path id="Polygon_47" data-name="Polygon 47" d="M15.5,0,31,16H0Z" transform="translate(1428 16) rotate(180)" fill="#9192bb"/>
    <path id="Polygon_48" data-name="Polygon 48" d="M26.5,0,53,31H0Z" transform="translate(1481 31) rotate(180)" fill="#9192bb"/>
    <path id="Polygon_49" data-name="Polygon 49" d="M15.5,0,31,16H0Z" transform="translate(1512 16) rotate(180)" fill="#9192bb"/>
    <path id="Polygon_50" data-name="Polygon 50" d="M26.5,0,53,31H0Z" transform="translate(1565 31) rotate(180)" fill="#9192bb"/>
    <path id="Polygon_51" data-name="Polygon 51" d="M15.5,0,31,16H0Z" transform="translate(1596 16) rotate(180)" fill="#9192bb"/>
    <path id="Polygon_53" data-name="Polygon 53" d="M15.5,0,31,16H0Z" transform="translate(1680 16) rotate(180)" fill="#9192bb"/>
    <path id="Polygon_55" data-name="Polygon 55" d="M26.5,0,53,31H0Z" transform="translate(1649 31) rotate(180)" fill="#9192bb"/>
    <path id="Polygon_56" data-name="Polygon 56" d="M26.5,0,53,31H0Z" transform="translate(1733 31) rotate(180)" fill="#9192bb"/>
  </g>
</svg>
