<svg xmlns="http://www.w3.org/2000/svg" viewBox="0 0 500 500" width="500" height="500">
  <defs>
    <filter id="ink" x="-12%" y="-12%" width="124%" height="124%">
      <feTurbulence type="fractalNoise" baseFrequency="0.014" numOctaves="2" seed="47" result="t"/>
      <feDisplacementMap in="SourceGraphic" in2="t" scale="2.4"/>
    </filter>
    <filter id="inkfine" x="-12%" y="-12%" width="124%" height="124%">
      <feTurbulence type="fractalNoise" baseFrequency="0.026" numOctaves="2" seed="13" result="t"/>
      <feDisplacementMap in="SourceGraphic" in2="t" scale="1.4"/>
    </filter>
    <filter id="grain">
      <feTurbulence type="fractalNoise" baseFrequency="0.9" numOctaves="2" seed="28"/>
      <feColorMatrix values="0 0 0 0 0.72  0 0 0 0 0.64  0 0 0 0 0.86  0 0 0 0.07 0"/>
    </filter>
    <clipPath id="disc"><circle cx="250" cy="250" r="183"/></clipPath>
  </defs>
  <rect width="500" height="500" fill="#0d0a14"/>

  <g filter="url(#ink)" fill="none" stroke-linecap="round" stroke-linejoin="round">
    <circle cx="250" cy="250" r="208" stroke="#45cdd0" stroke-width="16"/>
    <circle cx="250" cy="250" r="191.5" stroke="#b8a4d8" stroke-width="17"/>
  </g>
  <g transform="translate(0 38)">
  <g filter="url(#ink)" fill="none" stroke-linecap="round" stroke-linejoin="miter" stroke-width="27">
    <path stroke="#b8a4d8" d="M 308 190 L 206 190 L 206 250"/>
    <path stroke="#45cdd0" d="M 206 250 L 300 250"/>
    <path stroke="#b8a4d8" d="M 300 250 L 300 316 L 196 316"/>
  </g>
  </g>
  <g transform="translate(77 -13.8) scale(0.7)">
  <g filter="url(#ink)">
    <rect x="154" y="184" width="192" height="100" rx="44" fill="none" stroke="#45cdd0" stroke-width="16"/>
    <rect x="195" y="211" width="16" height="46" rx="6" fill="#45cdd0"/>
    <rect x="180" y="226" width="46" height="16" rx="6" fill="#45cdd0"/>
    <circle cx="297" cy="215" r="9.5" fill="#45cdd0"/>
    <circle cx="297" cy="253" r="9.5" fill="#45cdd0"/>
    <circle cx="278" cy="234" r="9.5" fill="#45cdd0"/>
    <circle cx="316" cy="234" r="9.5" fill="#45cdd0"/>
  </g>
  </g>
  <rect width="500" height="500" filter="url(#grain)" pointer-events="none"/>
</svg>
