<svg xmlns="http://www.w3.org/2000/svg" viewBox="0 0 500 500" width="500" height="500">
  <defs>
    <filter id="ink" x="-12%" y="-12%" width="124%" height="124%">
      <feTurbulence type="fractalNoise" baseFrequency="0.014" numOctaves="2" seed="61" result="t"/>
      <feDisplacementMap in="SourceGraphic" in2="t" scale="2.4"/>
    </filter>
    <filter id="inkfine" x="-12%" y="-12%" width="124%" height="124%">
      <feTurbulence type="fractalNoise" baseFrequency="0.026" numOctaves="2" seed="9" result="t"/>
      <feDisplacementMap in="SourceGraphic" in2="t" scale="1.4"/>
    </filter>
    <filter id="grain">
      <feTurbulence type="fractalNoise" baseFrequency="0.9" numOctaves="2" seed="22"/>
      <feColorMatrix values="0 0 0 0 0.72  0 0 0 0 0.64  0 0 0 0 0.86  0 0 0 0.07 0"/>
    </filter>
    <clipPath id="disc"><circle cx="250" cy="250" r="183"/></clipPath>
  </defs>
  <rect width="500" height="500" fill="#0d0a14"/>

  <g filter="url(#ink)" fill="none" stroke-linecap="round" stroke-linejoin="round">
    <circle cx="250" cy="250" r="208" stroke="#45cdd0" stroke-width="16"/>
    <circle cx="250" cy="250" r="191.5" stroke="#b8a4d8" stroke-width="17"/>
  </g>
  <g transform="translate(0 38)">
  <g filter="url(#ink)" fill="none" stroke-linecap="round" stroke-linejoin="miter" stroke-width="27">
    <path stroke="#b8a4d8" d="M 308 190 L 206 190 L 206 250"/>
    <path stroke="#45cdd0" d="M 206 250 L 300 250"/>
    <path stroke="#b8a4d8" d="M 300 250 L 300 316 L 196 316"/>
  </g>
  </g>
  <g transform="translate(77 -19.4) scale(0.7)">
  <g filter="url(#ink)">
    <rect x="158" y="176" width="184" height="132" rx="18" fill="none" stroke="#45cdd0" stroke-width="16"/>
    <circle cx="244" cy="256" r="29" fill="#45cdd0" stroke="none"/>
    <ellipse cx="244" cy="256" rx="52" ry="16" fill="none" stroke="#45cdd0" stroke-width="8" transform="rotate(-18 244 256)"/>
    <circle cx="302" cy="204" r="6.5" fill="#45cdd0" stroke="none"/>
    <circle cx="316" cy="238" r="3.8" fill="#45cdd0" stroke="none"/>
  </g>
  </g>
  <rect width="500" height="500" filter="url(#grain)" pointer-events="none"/>
</svg>
